<mxfile host="app.diagrams.net" agent="Mozilla/5.0 (Windows NT 10.0; Win64; x64) AppleWebKit/537.36 (KHTML, like Gecko) Chrome/128.0.0.0 Safari/537.36" version="24.7.8">
  <diagram id="R2lEEEUBdFMjLlhIrx00" name="Page-1">
    <mxGraphModel dx="1313" dy="696" grid="1" gridSize="10" guides="1" tooltips="1" connect="1" arrows="1" fold="1" page="1" pageScale="1" pageWidth="850" pageHeight="1100" math="0" shadow="0" extFonts="Permanent Marker^https://fonts.googleapis.com/css?family=Permanent+Marker">
      <root>
        <mxCell id="0" />
        <mxCell id="1" parent="0" />
        <mxCell id="ajPseUE0FJJwwEpJQtzd-1" value="&lt;font style=&quot;font-size: 19px;&quot;&gt;single user&lt;/font&gt;" style="rounded=0;whiteSpace=wrap;html=1;" vertex="1" parent="1">
          <mxGeometry x="140" y="402" width="120" height="60" as="geometry" />
        </mxCell>
        <mxCell id="ajPseUE0FJJwwEpJQtzd-19" value="&lt;font style=&quot;font-size: 18px;&quot;&gt;income&lt;/font&gt;" style="rounded=0;whiteSpace=wrap;html=1;fontSize=18;" vertex="1" parent="1">
          <mxGeometry x="600" y="402" width="120" height="60" as="geometry" />
        </mxCell>
        <mxCell id="ajPseUE0FJJwwEpJQtzd-20" value="expense" style="rounded=0;whiteSpace=wrap;html=1;fontSize=18;" vertex="1" parent="1">
          <mxGeometry x="141" y="702" width="120" height="60" as="geometry" />
        </mxCell>
        <mxCell id="ajPseUE0FJJwwEpJQtzd-21" value="&lt;font style=&quot;font-size: 19px;&quot;&gt;category&lt;/font&gt;" style="rounded=0;whiteSpace=wrap;html=1;" vertex="1" parent="1">
          <mxGeometry x="601" y="701" width="120" height="60" as="geometry" />
        </mxCell>
        <mxCell id="ajPseUE0FJJwwEpJQtzd-24" value="" style="edgeStyle=orthogonalEdgeStyle;rounded=0;orthogonalLoop=1;jettySize=auto;html=1;fontSize=15;" edge="1" parent="1" source="ajPseUE0FJJwwEpJQtzd-22" target="ajPseUE0FJJwwEpJQtzd-19">
          <mxGeometry relative="1" as="geometry">
            <Array as="points">
              <mxPoint x="580" y="435" />
              <mxPoint x="580" y="435" />
            </Array>
          </mxGeometry>
        </mxCell>
        <mxCell id="ajPseUE0FJJwwEpJQtzd-22" value="&lt;span style=&quot;font-size: 18px;&quot;&gt;Records&lt;/span&gt;&lt;div&gt;&lt;span style=&quot;font-size: 18px;&quot;&gt;Income&lt;/span&gt;&lt;/div&gt;" style="rhombus;whiteSpace=wrap;html=1;rounded=0;" vertex="1" parent="1">
          <mxGeometry x="370" y="390" width="150" height="90" as="geometry" />
        </mxCell>
        <mxCell id="ajPseUE0FJJwwEpJQtzd-50" value="" style="edgeStyle=orthogonalEdgeStyle;rounded=0;orthogonalLoop=1;jettySize=auto;html=1;fontSize=15;exitX=0.5;exitY=1;exitDx=0;exitDy=0;" edge="1" parent="1" source="ajPseUE0FJJwwEpJQtzd-25" target="ajPseUE0FJJwwEpJQtzd-20">
          <mxGeometry relative="1" as="geometry">
            <mxPoint x="186" y="640.3571428571427" as="sourcePoint" />
            <Array as="points">
              <mxPoint x="186" y="622" />
            </Array>
          </mxGeometry>
        </mxCell>
        <mxCell id="ajPseUE0FJJwwEpJQtzd-25" value="&lt;div&gt;&lt;br&gt;&lt;/div&gt;&lt;span style=&quot;color: rgb(0, 0, 0); font-family: Helvetica; font-size: 18px; font-style: normal; font-variant-ligatures: normal; font-variant-caps: normal; font-weight: 400; letter-spacing: normal; orphans: 2; text-align: center; text-indent: 0px; text-transform: none; widows: 2; word-spacing: 0px; -webkit-text-stroke-width: 0px; white-space: normal; background-color: rgb(251, 251, 251); text-decoration-thickness: initial; text-decoration-style: initial; text-decoration-color: initial; display: inline !important; float: none;&quot;&gt;Records Expenses&lt;/span&gt;&lt;div&gt;&lt;br/&gt;&lt;/div&gt;" style="rhombus;whiteSpace=wrap;html=1;rounded=0;" vertex="1" parent="1">
          <mxGeometry x="120" y="520" width="140" height="102" as="geometry" />
        </mxCell>
        <mxCell id="ajPseUE0FJJwwEpJQtzd-30" value="" style="edgeStyle=orthogonalEdgeStyle;rounded=0;orthogonalLoop=1;jettySize=auto;html=1;fontSize=15;exitX=0;exitY=0.5;exitDx=0;exitDy=0;" edge="1" parent="1" source="ajPseUE0FJJwwEpJQtzd-28" target="ajPseUE0FJJwwEpJQtzd-20">
          <mxGeometry relative="1" as="geometry">
            <mxPoint x="361" y="731.9999999999998" as="sourcePoint" />
          </mxGeometry>
        </mxCell>
        <mxCell id="ajPseUE0FJJwwEpJQtzd-28" value="Categorizes&lt;div&gt;Expenses&lt;/div&gt;" style="rhombus;whiteSpace=wrap;html=1;rounded=0;fontSize=19;" vertex="1" parent="1">
          <mxGeometry x="370" y="671" width="150" height="120" as="geometry" />
        </mxCell>
        <mxCell id="ajPseUE0FJJwwEpJQtzd-36" style="edgeStyle=orthogonalEdgeStyle;rounded=0;orthogonalLoop=1;jettySize=auto;html=1;exitX=0.5;exitY=0;exitDx=0;exitDy=0;entryX=0.5;entryY=0;entryDx=0;entryDy=0;" edge="1" parent="1" source="ajPseUE0FJJwwEpJQtzd-31" target="ajPseUE0FJJwwEpJQtzd-21">
          <mxGeometry relative="1" as="geometry" />
        </mxCell>
        <mxCell id="ajPseUE0FJJwwEpJQtzd-47" style="edgeStyle=orthogonalEdgeStyle;rounded=0;orthogonalLoop=1;jettySize=auto;html=1;exitX=0;exitY=0;exitDx=0;exitDy=0;" edge="1" parent="1" source="ajPseUE0FJJwwEpJQtzd-31">
          <mxGeometry relative="1" as="geometry">
            <mxPoint x="450" y="530" as="targetPoint" />
          </mxGeometry>
        </mxCell>
        <mxCell id="ajPseUE0FJJwwEpJQtzd-31" value="&lt;div&gt;&lt;span style=&quot;font-size: 18px;&quot;&gt;&lt;br&gt;&lt;/span&gt;&lt;/div&gt;&lt;div&gt;&lt;span style=&quot;font-size: 18px;&quot;&gt;Creates Categories&lt;/span&gt;&lt;br&gt;&lt;/div&gt;&lt;div&gt;&lt;br&gt;&lt;/div&gt;" style="rhombus;whiteSpace=wrap;html=1;direction=south;fontSize=19;" vertex="1" parent="1">
          <mxGeometry x="370" y="510" width="150" height="110" as="geometry" />
        </mxCell>
        <mxCell id="ajPseUE0FJJwwEpJQtzd-56" value="&lt;u style=&quot;font-size: 15px;&quot;&gt;user_id&lt;/u&gt;" style="ellipse;whiteSpace=wrap;html=1;fontSize=15;" vertex="1" parent="1">
          <mxGeometry x="10" y="377" width="90" height="46.5" as="geometry" />
        </mxCell>
        <mxCell id="ajPseUE0FJJwwEpJQtzd-60" value="" style="endArrow=none;html=1;rounded=0;" edge="1" parent="1">
          <mxGeometry width="50" height="50" relative="1" as="geometry">
            <mxPoint x="260" y="435" as="sourcePoint" />
            <mxPoint x="370" y="435" as="targetPoint" />
          </mxGeometry>
        </mxCell>
        <mxCell id="ajPseUE0FJJwwEpJQtzd-61" value="" style="endArrow=none;html=1;rounded=0;entryX=0.5;entryY=0;entryDx=0;entryDy=0;" edge="1" parent="1" target="ajPseUE0FJJwwEpJQtzd-25">
          <mxGeometry width="50" height="50" relative="1" as="geometry">
            <mxPoint x="195" y="463" as="sourcePoint" />
            <mxPoint x="194" y="521" as="targetPoint" />
          </mxGeometry>
        </mxCell>
        <mxCell id="ajPseUE0FJJwwEpJQtzd-62" value="" style="endArrow=none;html=1;rounded=0;exitX=0;exitY=0.5;exitDx=0;exitDy=0;entryX=1;entryY=0.5;entryDx=0;entryDy=0;" edge="1" parent="1" source="ajPseUE0FJJwwEpJQtzd-21" target="ajPseUE0FJJwwEpJQtzd-28">
          <mxGeometry width="50" height="50" relative="1" as="geometry">
            <mxPoint x="70" y="454" as="sourcePoint" />
            <mxPoint x="70" y="534" as="targetPoint" />
          </mxGeometry>
        </mxCell>
        <mxCell id="ajPseUE0FJJwwEpJQtzd-63" value="" style="endArrow=none;html=1;rounded=0;exitX=1;exitY=1;exitDx=0;exitDy=0;entryX=0.5;entryY=1;entryDx=0;entryDy=0;" edge="1" parent="1" source="ajPseUE0FJJwwEpJQtzd-1" target="ajPseUE0FJJwwEpJQtzd-31">
          <mxGeometry width="50" height="50" relative="1" as="geometry">
            <mxPoint x="260" y="510" as="sourcePoint" />
            <mxPoint x="360" y="510" as="targetPoint" />
            <Array as="points">
              <mxPoint x="280" y="565" />
            </Array>
          </mxGeometry>
        </mxCell>
        <mxCell id="ajPseUE0FJJwwEpJQtzd-74" value="&lt;div style=&quot;font-size: 15px;&quot;&gt;&lt;br style=&quot;font-size: 15px;&quot;&gt;&lt;/div&gt;user_name&lt;div style=&quot;font-size: 15px;&quot;&gt;&lt;br style=&quot;font-size: 15px;&quot;&gt;&lt;/div&gt;" style="ellipse;whiteSpace=wrap;html=1;fontSize=15;" vertex="1" parent="1">
          <mxGeometry x="60" y="330.5" width="90" height="46.5" as="geometry" />
        </mxCell>
        <mxCell id="ajPseUE0FJJwwEpJQtzd-75" value="mobile_no" style="ellipse;whiteSpace=wrap;html=1;fontSize=15;" vertex="1" parent="1">
          <mxGeometry x="155" y="320" width="90" height="46.5" as="geometry" />
        </mxCell>
        <mxCell id="ajPseUE0FJJwwEpJQtzd-76" value="last_login" style="ellipse;whiteSpace=wrap;html=1;fontSize=15;" vertex="1" parent="1">
          <mxGeometry x="250" y="330.5" width="90" height="46.5" as="geometry" />
        </mxCell>
        <mxCell id="ajPseUE0FJJwwEpJQtzd-77" value="date" style="ellipse;whiteSpace=wrap;html=1;fontSize=15;" vertex="1" parent="1">
          <mxGeometry x="480" y="288" width="90" height="46.5" as="geometry" />
        </mxCell>
        <mxCell id="ajPseUE0FJJwwEpJQtzd-78" value="timeStamp" style="ellipse;whiteSpace=wrap;html=1;fontSize=15;" vertex="1" parent="1">
          <mxGeometry x="753" y="420.5" width="90" height="46.5" as="geometry" />
        </mxCell>
        <mxCell id="ajPseUE0FJJwwEpJQtzd-79" value="&lt;u style=&quot;font-size: 15px;&quot;&gt;income_id&lt;/u&gt;" style="ellipse;whiteSpace=wrap;html=1;fontSize=15;" vertex="1" parent="1">
          <mxGeometry x="460" y="339.5" width="90" height="46.5" as="geometry" />
        </mxCell>
        <mxCell id="ajPseUE0FJJwwEpJQtzd-80" value="detail" style="ellipse;whiteSpace=wrap;html=1;fontSize=15;" vertex="1" parent="1">
          <mxGeometry x="565" y="265" width="90" height="46.5" as="geometry" />
        </mxCell>
        <mxCell id="ajPseUE0FJJwwEpJQtzd-81" value="amount" style="ellipse;whiteSpace=wrap;html=1;fontSize=15;" vertex="1" parent="1">
          <mxGeometry x="658" y="276.5" width="90" height="46.5" as="geometry" />
        </mxCell>
        <mxCell id="ajPseUE0FJJwwEpJQtzd-82" value="mode" style="ellipse;whiteSpace=wrap;html=1;fontSize=15;" vertex="1" parent="1">
          <mxGeometry x="719" y="318" width="90" height="46.5" as="geometry" />
        </mxCell>
        <mxCell id="ajPseUE0FJJwwEpJQtzd-83" value="user_id(FK)" style="ellipse;whiteSpace=wrap;html=1;fontSize=15;" vertex="1" parent="1">
          <mxGeometry x="750" y="366.5" width="90" height="46.5" as="geometry" />
        </mxCell>
        <mxCell id="ajPseUE0FJJwwEpJQtzd-84" value="" style="endArrow=none;html=1;rounded=0;entryX=0.24;entryY=0.914;entryDx=0;entryDy=0;entryPerimeter=0;exitX=0.75;exitY=0;exitDx=0;exitDy=0;fontSize=15;" edge="1" parent="1" source="ajPseUE0FJJwwEpJQtzd-1" target="ajPseUE0FJJwwEpJQtzd-76">
          <mxGeometry width="50" height="50" relative="1" as="geometry">
            <mxPoint x="220" y="402" as="sourcePoint" />
            <mxPoint x="270" y="352" as="targetPoint" />
            <Array as="points" />
          </mxGeometry>
        </mxCell>
        <mxCell id="ajPseUE0FJJwwEpJQtzd-88" value="" style="endArrow=none;html=1;rounded=0;exitX=0.357;exitY=-0.017;exitDx=0;exitDy=0;exitPerimeter=0;entryX=0.5;entryY=1;entryDx=0;entryDy=0;fontSize=15;" edge="1" parent="1" source="ajPseUE0FJJwwEpJQtzd-1" target="ajPseUE0FJJwwEpJQtzd-75">
          <mxGeometry width="50" height="50" relative="1" as="geometry">
            <mxPoint x="130" y="410" as="sourcePoint" />
            <mxPoint x="183" y="370" as="targetPoint" />
          </mxGeometry>
        </mxCell>
        <mxCell id="ajPseUE0FJJwwEpJQtzd-89" value="" style="endArrow=none;html=1;rounded=0;entryX=0.76;entryY=0.966;entryDx=0;entryDy=0;entryPerimeter=0;exitX=0.25;exitY=0;exitDx=0;exitDy=0;fontSize=15;" edge="1" parent="1" source="ajPseUE0FJJwwEpJQtzd-1" target="ajPseUE0FJJwwEpJQtzd-74">
          <mxGeometry width="50" height="50" relative="1" as="geometry">
            <mxPoint x="90" y="420" as="sourcePoint" />
            <mxPoint x="140" y="370" as="targetPoint" />
          </mxGeometry>
        </mxCell>
        <mxCell id="ajPseUE0FJJwwEpJQtzd-90" value="" style="endArrow=none;html=1;rounded=0;entryX=0.003;entryY=0.143;entryDx=0;entryDy=0;entryPerimeter=0;exitX=0.978;exitY=0.688;exitDx=0;exitDy=0;exitPerimeter=0;fontSize=15;" edge="1" parent="1" source="ajPseUE0FJJwwEpJQtzd-56" target="ajPseUE0FJJwwEpJQtzd-1">
          <mxGeometry width="50" height="50" relative="1" as="geometry">
            <mxPoint x="90" y="470" as="sourcePoint" />
            <mxPoint x="140" y="420" as="targetPoint" />
          </mxGeometry>
        </mxCell>
        <mxCell id="ajPseUE0FJJwwEpJQtzd-91" value="" style="endArrow=none;html=1;rounded=0;exitX=0.99;exitY=0.623;exitDx=0;exitDy=0;exitPerimeter=0;entryX=0;entryY=0.5;entryDx=0;entryDy=0;fontSize=15;" edge="1" parent="1" source="ajPseUE0FJJwwEpJQtzd-19" target="ajPseUE0FJJwwEpJQtzd-78">
          <mxGeometry width="50" height="50" relative="1" as="geometry">
            <mxPoint x="719" y="434" as="sourcePoint" />
            <mxPoint x="750" y="440" as="targetPoint" />
          </mxGeometry>
        </mxCell>
        <mxCell id="ajPseUE0FJJwwEpJQtzd-93" value="" style="endArrow=none;html=1;rounded=0;entryX=0;entryY=1;entryDx=0;entryDy=0;exitX=0.75;exitY=0;exitDx=0;exitDy=0;fontSize=15;" edge="1" parent="1" source="ajPseUE0FJJwwEpJQtzd-19" target="ajPseUE0FJJwwEpJQtzd-82">
          <mxGeometry width="50" height="50" relative="1" as="geometry">
            <mxPoint x="680" y="400" as="sourcePoint" />
            <mxPoint x="730" y="350" as="targetPoint" />
          </mxGeometry>
        </mxCell>
        <mxCell id="ajPseUE0FJJwwEpJQtzd-94" value="" style="endArrow=none;html=1;rounded=0;fontSize=15;" edge="1" parent="1">
          <mxGeometry width="50" height="50" relative="1" as="geometry">
            <mxPoint x="720" y="410" as="sourcePoint" />
            <mxPoint x="750" y="390" as="targetPoint" />
          </mxGeometry>
        </mxCell>
        <mxCell id="ajPseUE0FJJwwEpJQtzd-95" value="" style="endArrow=none;html=1;rounded=0;fontSize=15;" edge="1" parent="1">
          <mxGeometry width="50" height="50" relative="1" as="geometry">
            <mxPoint x="677" y="403" as="sourcePoint" />
            <mxPoint x="692" y="322" as="targetPoint" />
          </mxGeometry>
        </mxCell>
        <mxCell id="ajPseUE0FJJwwEpJQtzd-97" value="" style="endArrow=none;html=1;rounded=0;entryX=0.5;entryY=1;entryDx=0;entryDy=0;fontSize=15;" edge="1" parent="1" target="ajPseUE0FJJwwEpJQtzd-80">
          <mxGeometry width="50" height="50" relative="1" as="geometry">
            <mxPoint x="640" y="400" as="sourcePoint" />
            <mxPoint x="660" y="350" as="targetPoint" />
          </mxGeometry>
        </mxCell>
        <mxCell id="ajPseUE0FJJwwEpJQtzd-98" value="" style="endArrow=none;html=1;rounded=0;exitX=1;exitY=1;exitDx=0;exitDy=0;fontSize=15;" edge="1" parent="1" source="ajPseUE0FJJwwEpJQtzd-79">
          <mxGeometry width="50" height="50" relative="1" as="geometry">
            <mxPoint x="540" y="380" as="sourcePoint" />
            <mxPoint x="600" y="417" as="targetPoint" />
          </mxGeometry>
        </mxCell>
        <mxCell id="ajPseUE0FJJwwEpJQtzd-100" value="" style="endArrow=none;html=1;rounded=0;entryX=1;entryY=1;entryDx=0;entryDy=0;exitX=0.15;exitY=0.01;exitDx=0;exitDy=0;exitPerimeter=0;fontSize=15;" edge="1" parent="1" source="ajPseUE0FJJwwEpJQtzd-19" target="ajPseUE0FJJwwEpJQtzd-77">
          <mxGeometry width="50" height="50" relative="1" as="geometry">
            <mxPoint x="610" y="400" as="sourcePoint" />
            <mxPoint x="610" y="330" as="targetPoint" />
          </mxGeometry>
        </mxCell>
        <mxCell id="ajPseUE0FJJwwEpJQtzd-103" value="detail" style="ellipse;whiteSpace=wrap;html=1;fontSize=15;" vertex="1" parent="1">
          <mxGeometry x="13" y="673" width="90" height="46.5" as="geometry" />
        </mxCell>
        <mxCell id="ajPseUE0FJJwwEpJQtzd-104" value="&lt;u style=&quot;font-size: 15px;&quot;&gt;expense_id&lt;/u&gt;" style="ellipse;whiteSpace=wrap;html=1;fontSize=15;" vertex="1" parent="1">
          <mxGeometry x="69" y="631" width="90" height="46.5" as="geometry" />
        </mxCell>
        <mxCell id="ajPseUE0FJJwwEpJQtzd-105" value="date" style="ellipse;whiteSpace=wrap;html=1;fontSize=15;" vertex="1" parent="1">
          <mxGeometry x="9" y="724" width="90" height="46.5" as="geometry" />
        </mxCell>
        <mxCell id="ajPseUE0FJJwwEpJQtzd-106" value="amount" style="ellipse;whiteSpace=wrap;html=1;fontSize=15;" vertex="1" parent="1">
          <mxGeometry x="39" y="773" width="90" height="46.5" as="geometry" />
        </mxCell>
        <mxCell id="ajPseUE0FJJwwEpJQtzd-107" value="cid(FK)" style="ellipse;whiteSpace=wrap;html=1;fontSize=15;" vertex="1" parent="1">
          <mxGeometry x="69" y="832" width="90" height="46.5" as="geometry" />
        </mxCell>
        <mxCell id="ajPseUE0FJJwwEpJQtzd-108" value="mode" style="ellipse;whiteSpace=wrap;html=1;fontSize=15;" vertex="1" parent="1">
          <mxGeometry x="152" y="802" width="90" height="46.5" as="geometry" />
        </mxCell>
        <mxCell id="ajPseUE0FJJwwEpJQtzd-110" value="" style="endArrow=none;html=1;rounded=0;entryX=1;entryY=0;entryDx=0;entryDy=0;exitX=0;exitY=1;exitDx=0;exitDy=0;fontSize=15;" edge="1" parent="1" source="ajPseUE0FJJwwEpJQtzd-20" target="ajPseUE0FJJwwEpJQtzd-106">
          <mxGeometry width="50" height="50" relative="1" as="geometry">
            <mxPoint x="251" y="929" as="sourcePoint" />
            <mxPoint x="291" y="877" as="targetPoint" />
          </mxGeometry>
        </mxCell>
        <mxCell id="ajPseUE0FJJwwEpJQtzd-111" value="" style="endArrow=none;html=1;rounded=0;entryX=0.5;entryY=0;entryDx=0;entryDy=0;exitX=0.5;exitY=1;exitDx=0;exitDy=0;fontSize=15;" edge="1" parent="1" source="ajPseUE0FJJwwEpJQtzd-20" target="ajPseUE0FJJwwEpJQtzd-108">
          <mxGeometry width="50" height="50" relative="1" as="geometry">
            <mxPoint x="281" y="937" as="sourcePoint" />
            <mxPoint x="311" y="917" as="targetPoint" />
          </mxGeometry>
        </mxCell>
        <mxCell id="ajPseUE0FJJwwEpJQtzd-112" value="" style="endArrow=none;html=1;rounded=0;exitX=0.5;exitY=0;exitDx=0;exitDy=0;fontSize=15;" edge="1" parent="1" source="ajPseUE0FJJwwEpJQtzd-107">
          <mxGeometry width="50" height="50" relative="1" as="geometry">
            <mxPoint x="173.5" y="843" as="sourcePoint" />
            <mxPoint x="188.5" y="762" as="targetPoint" />
          </mxGeometry>
        </mxCell>
        <mxCell id="ajPseUE0FJJwwEpJQtzd-113" value="" style="endArrow=none;html=1;rounded=0;entryX=1;entryY=0.5;entryDx=0;entryDy=0;fontSize=15;" edge="1" parent="1" target="ajPseUE0FJJwwEpJQtzd-105">
          <mxGeometry width="50" height="50" relative="1" as="geometry">
            <mxPoint x="141" y="739" as="sourcePoint" />
            <mxPoint x="221" y="877" as="targetPoint" />
          </mxGeometry>
        </mxCell>
        <mxCell id="ajPseUE0FJJwwEpJQtzd-114" value="" style="endArrow=none;html=1;rounded=0;exitX=1;exitY=1;exitDx=0;exitDy=0;fontSize=15;" edge="1" parent="1" source="ajPseUE0FJJwwEpJQtzd-104" target="ajPseUE0FJJwwEpJQtzd-20">
          <mxGeometry width="50" height="50" relative="1" as="geometry">
            <mxPoint x="101" y="907" as="sourcePoint" />
            <mxPoint x="161" y="944" as="targetPoint" />
          </mxGeometry>
        </mxCell>
        <mxCell id="ajPseUE0FJJwwEpJQtzd-115" value="" style="endArrow=none;html=1;rounded=0;entryX=1;entryY=1;entryDx=0;entryDy=0;exitX=0;exitY=0.25;exitDx=0;exitDy=0;fontSize=15;" edge="1" parent="1" source="ajPseUE0FJJwwEpJQtzd-20" target="ajPseUE0FJJwwEpJQtzd-103">
          <mxGeometry width="50" height="50" relative="1" as="geometry">
            <mxPoint x="179" y="930" as="sourcePoint" />
            <mxPoint x="171" y="857" as="targetPoint" />
          </mxGeometry>
        </mxCell>
        <mxCell id="ajPseUE0FJJwwEpJQtzd-117" value="cname" style="ellipse;whiteSpace=wrap;html=1;fontSize=15;" vertex="1" parent="1">
          <mxGeometry x="678" y="810" width="90" height="46.5" as="geometry" />
        </mxCell>
        <mxCell id="ajPseUE0FJJwwEpJQtzd-118" value="" style="endArrow=none;html=1;rounded=0;entryX=0.236;entryY=0.065;entryDx=0;entryDy=0;entryPerimeter=0;exitX=0.61;exitY=1.043;exitDx=0;exitDy=0;exitPerimeter=0;" edge="1" parent="1" target="ajPseUE0FJJwwEpJQtzd-117" source="ajPseUE0FJJwwEpJQtzd-21">
          <mxGeometry width="50" height="50" relative="1" as="geometry">
            <mxPoint x="240" y="912" as="sourcePoint" />
            <mxPoint x="280" y="862" as="targetPoint" />
            <Array as="points" />
          </mxGeometry>
        </mxCell>
        <mxCell id="ajPseUE0FJJwwEpJQtzd-120" value="&lt;u style=&quot;font-size: 15px;&quot;&gt;cid&lt;/u&gt;" style="ellipse;whiteSpace=wrap;html=1;fontSize=15;" vertex="1" parent="1">
          <mxGeometry x="572" y="810" width="90" height="46.5" as="geometry" />
        </mxCell>
        <mxCell id="ajPseUE0FJJwwEpJQtzd-121" value="" style="endArrow=none;html=1;rounded=0;entryX=0.5;entryY=0;entryDx=0;entryDy=0;exitX=0.31;exitY=1.003;exitDx=0;exitDy=0;exitPerimeter=0;" edge="1" parent="1" target="ajPseUE0FJJwwEpJQtzd-120" source="ajPseUE0FJJwwEpJQtzd-21">
          <mxGeometry width="50" height="50" relative="1" as="geometry">
            <mxPoint x="570" y="743" as="sourcePoint" />
            <mxPoint x="172" y="862" as="targetPoint" />
            <Array as="points" />
          </mxGeometry>
        </mxCell>
        <mxCell id="ajPseUE0FJJwwEpJQtzd-122" value="user_id(FK)" style="ellipse;whiteSpace=wrap;html=1;fontSize=15;" vertex="1" parent="1">
          <mxGeometry x="236" y="832" width="90" height="46.5" as="geometry" />
        </mxCell>
        <mxCell id="ajPseUE0FJJwwEpJQtzd-123" value="" style="endArrow=none;html=1;rounded=0;entryX=0.278;entryY=0.077;entryDx=0;entryDy=0;entryPerimeter=0;exitX=0.75;exitY=1;exitDx=0;exitDy=0;fontSize=15;" edge="1" parent="1" target="ajPseUE0FJJwwEpJQtzd-122" source="ajPseUE0FJJwwEpJQtzd-20">
          <mxGeometry width="50" height="50" relative="1" as="geometry">
            <mxPoint x="331" y="773" as="sourcePoint" />
            <mxPoint x="410" y="928" as="targetPoint" />
          </mxGeometry>
        </mxCell>
        <mxCell id="ajPseUE0FJJwwEpJQtzd-124" value="timeStamp" style="ellipse;whiteSpace=wrap;html=1;fontSize=15;" vertex="1" parent="1">
          <mxGeometry x="281" y="785.5" width="90" height="46.5" as="geometry" />
        </mxCell>
        <mxCell id="ajPseUE0FJJwwEpJQtzd-125" value="" style="endArrow=none;html=1;rounded=0;entryX=0.278;entryY=0.077;entryDx=0;entryDy=0;exitX=1.033;exitY=0.883;exitDx=0;exitDy=0;entryPerimeter=0;exitPerimeter=0;fontSize=15;" edge="1" parent="1" target="ajPseUE0FJJwwEpJQtzd-124" source="ajPseUE0FJJwwEpJQtzd-20">
          <mxGeometry width="50" height="50" relative="1" as="geometry">
            <mxPoint x="300" y="742.5" as="sourcePoint" />
            <mxPoint x="380" y="897.5" as="targetPoint" />
          </mxGeometry>
        </mxCell>
      </root>
    </mxGraphModel>
  </diagram>
</mxfile>
